<svg width="16" height="15" viewBox="0 0 16 15" fill="none" xmlns="http://www.w3.org/2000/svg">
<path d="M7.87425 0C12.2242 0 15.75 2.748 15.75 6.13875C15.75 9.52875 12.2242 12.2767 7.875 12.2767C7.44196 12.276 7.00939 12.2484 6.57975 12.1943L3.27375 14.3565C2.898 14.5553 2.76525 14.5335 2.91975 14.0468L3.58875 11.2883C1.42875 10.1933 0 8.29575 0 6.13875C0 2.74875 3.525 0 7.875 0M12.306 6.045L13.4085 4.977C13.4721 4.91093 13.5076 4.82275 13.5075 4.73103C13.5074 4.63932 13.4717 4.55122 13.4079 4.48531C13.3441 4.41939 13.2573 4.3808 13.1656 4.37767C13.0739 4.37453 12.9846 4.4071 12.9165 4.4685L11.4705 5.868V4.7115C11.4705 4.61761 11.4332 4.52757 11.3668 4.46118C11.3004 4.3948 11.2104 4.3575 11.1165 4.3575C11.0226 4.3575 10.9326 4.3948 10.8662 4.46118C10.7998 4.52757 10.7625 4.61761 10.7625 4.7115V6.62925C10.75 6.68405 10.75 6.74095 10.7625 6.79575V7.875C10.7625 7.96889 10.7998 8.05893 10.8662 8.12532C10.9326 8.1917 11.0226 8.229 11.1165 8.229C11.2104 8.229 11.3004 8.1917 11.3668 8.12532C11.4332 8.05893 11.4705 7.96889 11.4705 7.875V6.85275L11.7907 6.543L12.8618 8.06775C12.8885 8.10582 12.9225 8.13824 12.9617 8.16318C13.001 8.18812 13.0448 8.20507 13.0906 8.21308C13.1365 8.22109 13.1834 8.22 13.2288 8.20986C13.2742 8.19972 13.3172 8.18074 13.3553 8.154C13.3933 8.12726 13.4257 8.09328 13.4507 8.05401C13.4756 8.01474 13.4926 7.97094 13.5006 7.92511C13.5086 7.87929 13.5075 7.83233 13.4974 7.78693C13.4872 7.74153 13.4682 7.69857 13.4415 7.6605L12.306 6.045ZM10.0875 7.488H8.9925V4.72275C8.98831 4.63178 8.94922 4.54592 8.88336 4.48303C8.8175 4.42014 8.72994 4.38504 8.63887 4.38504C8.54781 4.38504 8.46024 4.42014 8.39439 4.48303C8.32853 4.54592 8.28944 4.63178 8.28525 4.72275V7.842C8.28525 8.037 8.44275 8.196 8.6385 8.196H10.0875C10.1814 8.196 10.2714 8.1587 10.3378 8.09232C10.4042 8.02593 10.4415 7.93589 10.4415 7.842C10.4415 7.74811 10.4042 7.65807 10.3378 7.59168C10.2714 7.5253 10.1814 7.488 10.0875 7.488ZM5.69475 6.66975L6.21675 5.38875L6.69525 6.669L5.69475 6.66975ZM7.587 7.035L7.5885 7.023C7.58825 6.93383 7.55421 6.84807 7.49325 6.783L6.70875 4.683C6.67586 4.58293 6.61322 4.49527 6.52919 4.43175C6.44516 4.36822 6.34375 4.33185 6.2385 4.3275C6.13258 4.32745 6.02911 4.35945 5.94171 4.41928C5.8543 4.47911 5.78703 4.56399 5.74875 4.66275L4.50225 7.719C4.46674 7.80592 4.46722 7.90339 4.50358 7.98997C4.53994 8.07654 4.6092 8.14512 4.69612 8.18063C4.78305 8.21613 4.88052 8.21565 4.96709 8.17929C5.05366 8.14293 5.12224 8.07367 5.15775 7.98675L5.40675 7.377H6.95925L7.18275 7.977C7.198 8.02185 7.22209 8.06318 7.2536 8.09855C7.28511 8.13392 7.3234 8.1626 7.3662 8.1829C7.409 8.20321 7.45543 8.21471 7.50276 8.21674C7.55009 8.21877 7.59734 8.21127 7.64172 8.19471C7.68609 8.17814 7.7267 8.15284 7.76112 8.12029C7.79554 8.08775 7.82308 8.04863 7.8421 8.00525C7.86113 7.96187 7.87126 7.91511 7.87188 7.86774C7.87251 7.82038 7.86362 7.77337 7.84575 7.7295L7.587 7.035ZM5.09475 4.7265C5.09495 4.68002 5.08595 4.63396 5.06828 4.59097C5.05061 4.54798 5.0246 4.50891 4.99177 4.47601C4.95894 4.44311 4.91993 4.41702 4.87697 4.39926C4.83402 4.38149 4.78798 4.3724 4.7415 4.3725H2.30775C2.21386 4.3725 2.12382 4.4098 2.05743 4.47618C1.99105 4.54257 1.95375 4.63261 1.95375 4.7265C1.95375 4.82039 1.99105 4.91043 2.05743 4.97682C2.12382 5.0432 2.21386 5.0805 2.30775 5.0805H3.17775V7.8825C3.17775 7.97639 3.21505 8.06643 3.28143 8.13282C3.34782 8.1992 3.43786 8.2365 3.53175 8.2365C3.62564 8.2365 3.71568 8.1992 3.78207 8.13282C3.84845 8.06643 3.88575 7.97639 3.88575 7.8825V5.0805H4.74075C4.78729 5.0807 4.83342 5.07168 4.87645 5.05396C4.91949 5.03624 4.9586 5.01017 4.99151 4.97726C5.02442 4.94435 5.05049 4.90524 5.06821 4.8622C5.08593 4.81917 5.09495 4.77304 5.09475 4.7265Z" fill="black"/>
</svg>
